<?xml version="1.0" encoding="iso-8859-1"?>
<!-- Generator: Adobe Illustrator 19.0.0, SVG Export Plug-In . SVG Version: 6.00 Build 0)  -->
<svg version="1.1" id="Capa_1" xmlns="http://www.w3.org/2000/svg" xmlns:xlink="http://www.w3.org/1999/xlink" x="0px" y="0px"
	 viewBox="0 0 512.001 512.001" style="enable-background:new 0 0 512.001 512.001;" xml:space="preserve">
<g>
	<g>
		<path d="M497,180.009h-20.44c-0.86-3.629-1.825-7.236-2.894-10.811l17.7-10.218c7.17-4.139,9.632-13.318,5.49-20.491
			l-30.001-51.964c-4.139-7.168-13.318-9.632-20.491-5.49l-17.563,10.139c-2.58-2.732-5.24-5.392-7.973-7.972l10.139-17.563
			c4.143-7.174,1.685-16.349-5.49-20.491l-51.963-30.001c-7.174-4.144-16.35-1.684-20.491,5.49l-10.219,17.7
			c-3.575-1.068-7.182-2.033-10.811-2.893V15.002c0-8.284-6.716-15.001-15.001-15.001h-60.002c-8.284,0-15.001,6.716-15.001,15.001
			v20.441c-3.629,0.86-7.235,1.825-10.811,2.893l-10.219-17.7c-4.143-7.175-13.316-9.632-20.491-5.49l-51.963,30.001
			c-7.175,4.142-9.633,13.317-5.49,20.491L153.153,83.2c-2.733,2.581-5.393,5.24-7.973,7.973l-17.563-10.139
			c-7.169-4.14-16.35-1.682-20.491,5.49l-30.001,51.964c-4.139,7.169-1.684,16.35,5.49,20.491l17.7,10.218
			c-1.068,3.575-2.033,7.181-2.894,10.811H76.983c-8.284,0-15.001,6.716-15.001,15.001v60.003c0,8.284,6.716,15.001,15.001,15.001
			h20.44c0.86,3.629,1.825,7.236,2.894,10.811l-17.7,10.218c-7.17,4.139-9.632,13.318-5.49,20.491l21.852,37.849L13.16,435.199
			c-17.547,17.546-17.547,46.096,0,63.643c17.546,17.545,46.095,17.545,63.642,0l85.818-85.818l37.849,21.852
			c7.174,4.142,16.348,1.684,20.491-5.49l10.219-17.7c3.574,1.068,7.182,2.033,10.811,2.893v20.44
			c0,8.284,6.716,15.001,15.001,15.001h60.002c8.284,0,15.001-6.716,15.001-15.001v-20.44c3.629-0.86,7.235-1.825,10.811-2.893
			l10.219,17.7c4.142,7.174,13.317,9.631,20.491,5.49l51.963-30.001c7.175-4.142,9.633-13.317,5.49-20.491l-10.139-17.562
			c2.733-2.581,5.393-5.24,7.973-7.973l17.563,10.139c7.168,4.139,16.349,1.684,20.491-5.49l30.001-51.964
			c4.139-7.169,1.684-16.35-5.49-20.491l-17.7-10.218c1.068-3.575,2.033-7.181,2.894-10.811h20.44
			c8.284,0,15.001-6.716,15.001-15.001V195.01C512,186.725,505.284,180.009,497,180.009z M55.588,477.628
			c-5.848,5.849-15.365,5.848-21.214,0c-5.863-5.864-5.863-15.351,0-21.214c5.849-5.849,15.366-5.847,21.214,0
			C61.451,462.278,61.451,471.765,55.588,477.628z M85.584,447.632c-4.297-9.02-11.649-16.658-21.215-21.214l212.015-212.014
			c5.905-5.903,15.46-5.754,21.214,0c5.849,5.849,5.849,15.366,0,21.215C295.711,237.506,87.592,445.624,85.584,447.632z
			 M219.989,144.044v84.327l-31.923,31.923C174.224,221.582,183.472,175.251,219.989,144.044z M309.992,186.329v-63.652
			c19.452,4.4,37.251,14.086,51.248,28.084c13.94,13.941,23.597,31.381,28.018,50.249h-64.21v-0.001
			C321.211,194.924,316.059,189.936,309.992,186.329z M368.641,290.813c-27.719,34.444-74.705,48.221-116.935,33.123l32.924-33.123
			H368.641z M481.999,240.011h-17.7c-7.324,0-13.579,5.29-14.794,12.515c-1.71,10.177-4.404,20.248-8.008,29.931
			c-2.554,6.86,0.218,14.563,6.558,18.223l15.319,8.844l-15.001,25.981l-15.18-8.763c-6.336-3.658-14.389-2.212-19.055,3.424
			c-6.609,7.983-14.01,15.383-21.992,21.992c-5.636,4.666-7.083,12.718-3.425,19.055l8.763,15.179l-25.981,15.001l-8.845-15.319
			c-3.66-6.339-11.362-9.11-18.223-6.558c-9.683,3.604-19.754,6.298-29.932,8.009c-7.223,1.214-12.514,7.468-12.514,14.793v17.702
			H271.99v-17.7c0-7.324-5.29-13.579-12.513-14.793c-10.18-1.711-20.25-4.406-29.931-8.009c-6.859-2.553-14.563,0.219-18.224,6.558
			l-8.845,15.319l-17.896-10.332l44.211-44.211c18.499,8.858,38.361,13.213,58.12,13.213c50.493,0,98.969-28.376,122.21-77.651
			c4.684-9.932-2.571-21.4-13.567-21.4H314.63c4.777-4.777,14.698-13.252,16.933-30.001h75.111c8.717,0,15.595-7.414,14.961-16.092
			c-2.343-32.128-16.258-62.448-39.183-85.372c-22.871-22.873-53.545-36.788-86.371-39.183c-8.714-0.632-16.093,6.275-16.093,14.961
			v75.258c-16.074,2.51-23.944,11.73-30.001,17.787v-81.923c0-10.982-11.454-18.256-21.399-13.568
			c-64.425,30.384-96.598,111.141-63.451,180.342l-44.199,44.199l-10.332-17.897l15.319-8.844c6.34-3.66,9.111-11.362,6.558-18.223
			c-3.604-9.684-6.298-19.754-8.008-29.931c-1.214-7.223-7.468-12.514-14.793-12.514h-17.7V210.01h17.7
			c7.324,0,13.579-5.29,14.794-12.515c1.71-10.177,4.404-20.248,8.008-29.931c2.554-6.86-0.218-14.563-6.558-18.223l-15.319-8.844
			l15.001-25.981l15.18,8.763c6.335,3.657,14.388,2.212,19.055-3.424c6.609-7.983,14.01-15.383,21.992-21.992
			c5.636-4.666,7.083-12.718,3.425-19.055l-8.763-15.179l25.981-15.001l8.845,15.319c3.66,6.339,11.362,9.11,18.223,6.558
			c9.684-3.604,19.755-6.298,29.931-8.009c7.224-1.214,12.515-7.468,12.515-14.793V30.002h30.001v17.7
			c0,7.325,5.29,13.579,12.515,14.793c10.178,1.711,20.248,4.405,29.93,8.009c6.86,2.554,14.563-0.218,18.224-6.558l8.845-15.319
			l25.981,15.001l-8.763,15.179c-3.658,6.336-2.212,14.389,3.424,19.055c7.984,6.611,15.385,14.011,21.993,21.993
			c4.665,5.635,12.716,7.083,19.055,3.424l15.18-8.763l15.001,25.981l-15.319,8.844c-6.34,3.66-9.111,11.361-6.558,18.223
			c3.604,9.684,6.298,19.754,8.008,29.931c1.212,7.225,7.466,12.516,14.792,12.516h17.7V240.011z"/>
	</g>
</g>
<g>
</g>
<g>
</g>
<g>
</g>
<g>
</g>
<g>
</g>
<g>
</g>
<g>
</g>
<g>
</g>
<g>
</g>
<g>
</g>
<g>
</g>
<g>
</g>
<g>
</g>
<g>
</g>
<g>
</g>
</svg>
